<svg id="Layer_1" data-name="Layer 1" xmlns="http://www.w3.org/2000/svg" viewBox="0 0 42.42 60"><defs><style>.cls-1{fill:#fff;}</style></defs><title>p</title><path id="_Compound_Path_" data-name="&lt;Compound Path&gt;" class="cls-1" d="M34.25,11.17A17.21,17.21,0,0,0,18.76,1.4H1.59V51.32L11.67,61.4V37.15l6.67,6.67h8.5a17.17,17.17,0,0,0,7.41-32.65ZM9.67,9.49V56.58L3.59,50.49V3.4H18.76a15.21,15.21,0,0,1,12.57,6.68,17.13,17.13,0,0,0-4.49-.6Zm2,2H26.84a15.09,15.09,0,0,1,5.9,1.19,15.18,15.18,0,0,1-14,21.06H11.67ZM26.84,41.82H19.17l-6.09-6.09h5.67A17.18,17.18,0,0,0,35.34,14.09a15.16,15.16,0,0,1-8.5,27.73Z" transform="translate(-1.59 -1.4)"/></svg>