<svg id="Layer_1" data-name="Layer 1" xmlns="http://www.w3.org/2000/svg" viewBox="0 0 271.67 40"><defs><style>.cls-1{fill:#fff;}</style></defs><title>patino</title><g id="_Group_" data-name="&lt;Group&gt;"><g id="_Group_2" data-name="&lt;Group&gt;"><polygon id="_Path_" data-name="&lt;Path&gt;" class="cls-1" points="101.28 40 101.28 1.19 90.1 1.19 90.1 0 118.55 0 118.55 1.19 107.36 1.19 107.36 40 101.28 40"/></g><g id="_Group_3" data-name="&lt;Group&gt;"><rect id="_Path_2" data-name="&lt;Path&gt;" class="cls-1" x="146.27" width="6.08" height="40"/></g><g id="_Group_4" data-name="&lt;Group&gt;"><path class="cls-1" d="M252.5,41c-11.61,0-20.36-8.6-20.36-20a20.35,20.35,0,0,1,40.7,0C272.84,32.41,264.1,41,252.5,41Zm0-38.81C244,2.19,238.22,9.75,238.22,21S244,39.82,252.5,39.82,266.79,32.26,266.79,21,261,2.19,252.5,2.19Z" transform="translate(-1.16 -1)"/></g><g id="_Group_5" data-name="&lt;Group&gt;"><polygon id="_Path_3" data-name="&lt;Path&gt;" class="cls-1" points="207.79 0 207.79 30.19 181.42 0 180.3 0 180.3 40 181.48 40 181.48 9.56 207.73 40 208.98 40 208.98 0 207.79 0"/></g><g id="_Group_6" data-name="&lt;Group&gt;"><path class="cls-1" d="M57.44,1,42.23,41h1.2l4.68-12.29H63.67L68.35,41h6.52L59.67,1ZM48.71,27.52l7.18-18.6,7.18,18.6Z" transform="translate(-1.16 -1)"/></g><g id="_Group_7" data-name="&lt;Group&gt;"><path class="cls-1" d="M1.16,41V1H12.22C20.53,1,25.9,4.88,25.9,11.4c0,5.18-3.59,10.71-13.67,10.71h-5V41Zm9.65-20.07c6.74,0,9.75-3.18,9.75-9.53s-3-9.21-9.75-9.21H7.24V20.93Z" transform="translate(-1.16 -1)"/></g></g></svg>